solid Created by Gmsh
facet normal 0 0 1
  outer loop
    vertex 30 30 1
    vertex 50 30 1
    vertex 40 40 1
  endloop
endfacet
facet normal 0 0 1
  outer loop
    vertex 50 50 1
    vertex 30 50 1
    vertex 40 40 1
  endloop
endfacet
facet normal -0 0 1
  outer loop
    vertex 40 40 1
    vertex 50 30 1
    vertex 50 50 1
  endloop
endfacet
facet normal 0 0 1
  outer loop
    vertex 40 40 1
    vertex 30 50 1
    vertex 30 30 1
  endloop
endfacet
facet normal -0 1 0
  outer loop
    vertex 30 30 1
    vertex 50 30 1
    vertex 30 30 -1
  endloop
endfacet
facet normal 0 1 0
  outer loop
    vertex 30 30 -1
    vertex 50 30 1
    vertex 50 30 -1
  endloop
endfacet
facet normal -1 0 0
  outer loop
    vertex 50 30 -1
    vertex 50 50 1
    vertex 50 50 -1
  endloop
endfacet
facet normal -1 0 0
  outer loop
    vertex 50 30 -1
    vertex 50 30 1
    vertex 50 50 1
  endloop
endfacet
facet normal -0 -1 -0
  outer loop
    vertex 50 50 1
    vertex 30 50 1
    vertex 50 50 -1
  endloop
endfacet
facet normal 0 -1 0
  outer loop
    vertex 50 50 -1
    vertex 30 50 1
    vertex 30 50 -1
  endloop
endfacet
facet normal 1 0 -0
  outer loop
    vertex 30 50 -1
    vertex 30 50 1
    vertex 30 30 -1
  endloop
endfacet
facet normal 1 0 0
  outer loop
    vertex 30 50 1
    vertex 30 30 1
    vertex 30 30 -1
  endloop
endfacet
facet normal 0 0 1
  outer loop
    vertex 30 30 -1
    vertex 50 30 -1
    vertex 40 40 -1
  endloop
endfacet
facet normal 0 0 1
  outer loop
    vertex 50 50 -1
    vertex 30 50 -1
    vertex 40 40 -1
  endloop
endfacet
facet normal -0 0 1
  outer loop
    vertex 40 40 -1
    vertex 50 30 -1
    vertex 50 50 -1
  endloop
endfacet
facet normal 0 0 1
  outer loop
    vertex 40 40 -1
    vertex 30 50 -1
    vertex 30 30 -1
  endloop
endfacet
endsolid Created by Gmsh
